<svg width="169" height="37" viewBox="0 0 169 37" fill="none" xmlns="http://www.w3.org/2000/svg">
<path d="M141.911 25.0481H128.414L134.228 16.3745H147.725L141.911 25.0481Z" fill="#880000"/>
<path d="M156.415 16.6661V34.6845H168.001V1.91748L156.415 16.6661Z" fill="#880000"/>
<path d="M72.3992 28.6042C66.9696 28.6042 62.5786 24.1905 62.5786 18.7509C62.5786 13.3112 66.9814 8.89749 72.3992 8.89749C75.5625 8.89749 78.36 10.4006 80.1659 12.7148L84.9936 5.9033C81.5941 2.82562 76.9671 0.916992 71.8798 0.916992C61.4101 0.916992 52.9233 8.93328 52.9233 18.8105C52.9233 28.6877 61.4101 36.704 71.8798 36.704C77.699 36.704 82.9043 34.2227 86.3864 30.322L81.24 23.0572C79.6466 26.3377 76.2943 28.5923 72.411 28.5923" fill="#880000"/>
<path d="M99.7289 1.91748H88.8255L99.3251 17.3372H109.905L110.067 17.0829L99.7289 1.91748Z" fill="#880000"/>
<path d="M121.472 1.91748L110.429 16.4291L110.256 16.6725L96.5516 34.6845H108.321L133.241 1.91748H121.472Z" fill="#880000"/>
<path d="M31.7323 1.91748L22.6897 14.2384L13.6471 1.91748H0V34.6845H9.30432V10.0078L22.6897 27.4634L36.087 10.0078V34.6845H45.3794V1.91748H31.7323Z" fill="#880000"/>
</svg>
